<svg width="746" height="199" xmlns="http://www.w3.org/2000/svg" xmlns:xlink="http://www.w3.org/1999/xlink" xml:space="preserve" overflow="hidden"><defs><clipPath id="clip0"><rect x="232" y="245" width="746" height="199"/></clipPath><clipPath id="clip1"><rect x="232" y="246" width="746" height="197"/></clipPath><clipPath id="clip2"><rect x="232" y="246" width="747" height="198"/></clipPath><clipPath id="clip3"><rect x="232" y="246" width="816" height="229"/></clipPath><clipPath id="clip4"><rect x="232" y="246" width="816" height="229"/></clipPath><clipPath id="clip5"><rect x="232" y="249" width="191" height="191"/></clipPath><clipPath id="clip6"><rect x="232" y="249" width="191" height="191"/></clipPath><clipPath id="clip7"><rect x="232" y="249" width="191" height="191"/></clipPath><clipPath id="clip8"><rect x="232" y="249" width="191" height="191"/></clipPath></defs><g clip-path="url(#clip0)" transform="translate(-232 -245)"><g clip-path="url(#clip1)"><g clip-path="url(#clip2)"><g clip-path="url(#clip3)"><g clip-path="url(#clip4)"><text fill="#E7EEF2" fill-opacity="1" font-family="Aharoni,Aharoni_MSFontService,sans-serif" font-style="normal" font-variant="normal" font-weight="700" font-stretch="normal" font-size="115" text-anchor="start" direction="ltr" writing-mode="lr-tb" unicode-bidi="normal" text-decoration="none" transform="matrix(0.937629 0 0 0.939985 428.716 376)">CappaTech</text><g clip-path="url(#clip5)"><g clip-path="url(#clip6)"><g clip-path="url(#clip7)"><g clip-path="url(#clip8)"><path d="M99.7963 109.513C99.7963 57.1918 142.211 14.7772 194.533 14.7772 246.854 14.7772 289.269 57.1918 289.269 109.513 289.269 161.834 246.854 204.249 194.533 204.249 142.211 204.249 99.7963 161.834 99.7963 109.513ZM121.197 109.513C121.197 150.015 154.031 182.849 194.533 182.849 235.035 182.849 267.869 150.015 267.869 109.513 267.869 69.0112 235.035 36.178 194.533 36.178 154.031 36.178 121.197 69.0112 121.197 109.513Z" stroke="#E7EEF2" stroke-width="0.404855" stroke-linecap="butt" stroke-linejoin="miter" stroke-miterlimit="8" stroke-opacity="1" fill="#E7EEF2" fill-rule="evenodd" fill-opacity="1" transform="matrix(1.00243 0 0 1 132.163 235.185)"/><path d="M154.7 135.263C140.55 113.356 146.823 84.1422 168.71 70.0136 190.597 55.8846 219.811 62.1902 233.96 84.0977 243.983 99.6159 244.046 119.545 234.118 135.104" stroke="#E7EEF2" stroke-width="20.2428" stroke-linecap="butt" stroke-linejoin="miter" stroke-miterlimit="8" stroke-opacity="1" fill="none" fill-rule="evenodd" transform="matrix(1.00243 0 0 1 132.163 235.185)"/><path d="M180.378 116.811C177.259 109.011 180.977 100.155 188.683 97.0309 196.389 93.9057 205.165 97.6955 208.284 105.495 209.732 109.118 209.75 113.161 208.332 116.787" stroke="#E7EEF2" stroke-width="20.2428" stroke-linecap="butt" stroke-linejoin="miter" stroke-miterlimit="8" stroke-opacity="1" fill="none" fill-rule="evenodd" transform="matrix(1.00243 0 0 1 132.163 235.185)"/><path d="M187.335 113.715C185.761 110.178 187.578 106.164 191.394 104.749 195.211 103.334 199.582 105.054 201.158 108.59 201.902 110.26 201.913 112.126 201.187 113.788L194.247 111.152Z" stroke="#E7EEF2" stroke-width="0.404855" stroke-linecap="butt" stroke-linejoin="miter" stroke-miterlimit="8" stroke-opacity="1" fill="#E7EEF2" fill-rule="evenodd" fill-opacity="1" transform="matrix(1.00243 0 0 1 132.163 235.185)"/><path d="M194.533 177.529 194.533 177.529C189.838 177.529 186.031 173.722 186.031 169.027L186.031 127.732 203.035 127.732 203.035 169.027C203.035 173.722 199.228 177.529 194.533 177.529Z" stroke="#E7EEF2" stroke-width="0.404855" stroke-linecap="butt" stroke-linejoin="miter" stroke-miterlimit="8" stroke-opacity="1" fill="#E7EEF2" fill-rule="evenodd" fill-opacity="1" transform="matrix(1.00243 0 0 1 132.163 235.185)"/><path d="M173.481 170.647 173.481 170.647C169.902 170.647 167.002 167.746 167.002 164.168L167.002 134.614 179.958 134.614 179.958 164.168C179.958 167.746 177.058 170.647 173.481 170.647Z" stroke="#E7EEF2" stroke-width="0.404855" stroke-linecap="butt" stroke-linejoin="miter" stroke-miterlimit="8" stroke-opacity="1" fill="#E7EEF2" fill-rule="evenodd" fill-opacity="1" transform="matrix(1.00243 0 0 1 132.163 235.185)"/><path d="M215.383 170.647 215.383 170.647C211.917 170.647 209.107 167.836 209.107 164.371L209.107 134.614 221.658 134.614 221.658 164.371C221.658 167.836 218.848 170.647 215.383 170.647Z" stroke="#E7EEF2" stroke-width="0.404855" stroke-linecap="butt" stroke-linejoin="miter" stroke-miterlimit="8" stroke-opacity="1" fill="#E7EEF2" fill-rule="evenodd" fill-opacity="1" transform="matrix(1.00243 0 0 1 132.163 235.185)"/></g></g></g></g></g></g></g></g></g></svg>